<svg xmlns="http://www.w3.org/2000/svg" viewBox="0 0 200 200">
  <!-- 8-tooth gear outline -->
  <path
    d="M 164.0,88.7
       L 183.7,85.2
       L 183.7,114.8
       L 164.0,111.3
       L 153.3,137.3
       L 169.6,148.8
       L 148.8,169.6
       L 137.3,153.3
       L 111.3,164.0
       L 114.8,183.7
       L  85.2,183.7
       L  88.7,164.0
       L  62.7,153.3
       L  51.2,169.6
       L  30.4,148.8
       L  46.8,137.3
       L  36.0,111.3
       L  16.3,114.8
       L  16.3, 85.2
       L  36.0, 88.7
       L  46.8, 62.7
       L  30.4, 51.2
       L  51.2, 30.4
       L  62.7, 46.8
       L  88.7, 36.0
       L  85.2, 16.3
       L 114.8, 16.3
       L 111.3, 36.0
       L 137.3, 46.8
       L 148.8, 30.4
       L 169.6, 51.2
       L 153.3, 62.7
       Z"
    fill="none"
    stroke="#33FF33"
    stroke-width="4"
    stroke-linejoin="round"
  />
  <!-- Center hub hole -->
  <circle
    cx="100" cy="100" r="22"
    fill="none"
    stroke="#33FF33"
    stroke-width="4"
  />
</svg>
